# This file uses centimeters as units for non-parametric coordinates.

mtllib employee_sign.mtl
g default
v -0.746594 -0.000249 0.010000
v 0.746594 -0.000249 0.010000
v -0.746594 0.757988 0.010000
v 0.746594 0.757988 0.010000
v -0.746594 0.757988 -0.010000
v 0.746594 0.757988 -0.010000
v -0.746594 -0.000249 -0.010000
v 0.746594 -0.000249 -0.010000
vt 0.658732 0.535462
vt 0.543091 0.418165
vt 0.658732 0.610967
vt 0.658732 0.752778
vt 0.056006 0.711257
vt 0.608084 0.752778
vt 0.608084 0.959019
vt 0.608084 0.822183
vt 0.658732 0.959019
vt 0.658732 0.822183
vt 0.543091 0.668165
vt 0.050769 0.418165
vt 0.050769 0.668165
vt 0.556006 0.711257
vt 0.556006 0.965155
vt 0.608084 0.610967
vt 0.056006 0.965155
vt 0.608084 0.535462
vn 0.000000 0.000000 1.000000
vn 0.000000 0.000000 1.000000
vn 0.000000 0.000000 1.000000
vn 0.000000 0.000000 1.000000
vn 0.000000 1.000000 0.000000
vn 0.000000 1.000000 0.000000
vn 0.000000 1.000000 0.000000
vn 0.000000 1.000000 0.000000
vn 0.000000 0.000000 -1.000000
vn 0.000000 0.000000 -1.000000
vn 0.000000 0.000000 -1.000000
vn 0.000000 0.000000 -1.000000
vn 0.000000 -1.000000 0.000000
vn 0.000000 -1.000000 0.000000
vn 0.000000 -1.000000 0.000000
vn 0.000000 -1.000000 0.000000
vn 1.000000 0.000000 0.000000
vn 1.000000 0.000000 0.000000
vn 1.000000 0.000000 0.000000
vn 1.000000 0.000000 0.000000
vn -1.000000 0.000000 0.000000
vn -1.000000 0.000000 0.000000
vn -1.000000 0.000000 0.000000
vn -1.000000 0.000000 0.000000
s off
g employee_sign
usemtl initialShadingGroup
f 1/12/1 2/2/2 4/11/3 3/13/4
f 3/3/5 4/4/6 6/6/7 5/16/8
f 5/5/9 6/14/10 8/15/11 7/17/12
f 7/7/13 8/8/14 2/10/15 1/9/16
f 2/10/17 8/8/18 6/6/19 4/4/20
f 7/18/21 1/1/22 3/3/23 5/16/24
