# This file uses centimeters as units for non-parametric coordinates.

mtllib warning_sign.mtl
g default
v 0.020000 -0.500000 -0.866026
v 0.020000 -0.500000 0.866025
v 0.020000 1.000000 0.000000
v -0.020000 -0.500000 -0.866026
v -0.020000 -0.500000 0.866025
v -0.020000 1.000000 0.000000
vt 0.336601 0.450344
vt 0.065970 0.451355
vt 0.202161 0.685223
vt 0.410177 0.655212
vt 0.426592 0.655212
vt 0.443007 0.655212
vt 0.459422 0.655212
vt 0.410177 0.964596
vt 0.426592 0.964596
vt 0.443007 0.964596
vt 0.459422 0.964596
vt 0.332423 0.726447
vt 0.061790 0.726685
vt 0.197312 0.960941
vn -0.000000 -1.000000 -0.000000
vn -0.000000 -1.000000 -0.000000
vn -0.000000 -1.000000 -0.000000
vn -0.000000 -1.000000 -0.000000
vn 0.000000 0.500000 0.866025
vn 0.000000 0.500000 0.866025
vn 0.000000 0.500000 0.866025
vn 0.000000 0.500000 0.866025
vn 0.000000 0.500000 -0.866025
vn 0.000000 0.500000 -0.866025
vn 0.000000 0.500000 -0.866025
vn 0.000000 0.500000 -0.866025
vn 1.000000 -0.000000 0.000000
vn 1.000000 -0.000000 0.000000
vn 1.000000 -0.000000 0.000000
vn -1.000000 0.000000 0.000000
vn -1.000000 0.000000 0.000000
vn -1.000000 0.000000 0.000000
s off
g warning_sign
usemtl initialShadingGroup
f 1/4/1 2/5/2 5/9/3 4/8/4
f 2/5/5 3/6/6 6/10/7 5/9/8
f 3/6/9 1/7/10 4/11/11 6/10/12
f 1/1/13 3/3/14 2/2/15
f 4/13/16 5/12/17 6/14/18
